<svg width="24" height="25" viewBox="0 0 24 25" fill="none" xmlns="http://www.w3.org/2000/svg">
<circle cx="12" cy="13" r="12" fill="#F8C654"/>
<path d="M13 16.9999L13 9.41394L15.293 11.7069C15.684 12.0979 16.316 12.0979 16.707 11.7069C17.098 11.3159 17.098 10.6839 16.707 10.2929L12 5.58594L7.29299 10.2929C7.09799 10.4879 6.99999 10.7439 6.99999 10.9999C6.99999 11.2559 7.09799 11.5119 7.29299 11.7069C7.68399 12.0979 8.31599 12.0979 8.70699 11.7069L11 9.41394L11 16.9999C11 17.5519 11.448 17.9999 12 17.9999C12.552 17.9999 13 17.5519 13 16.9999Z" fill="white"/>
</svg>
