<svg width="194" height="25" viewBox="0 0 194 25" fill="none" xmlns="http://www.w3.org/2000/svg">
<path d="M54.5 0.630107C56.54 0.630107 58.58 0.620107 60.62 0.610107C60.62 4.83011 60.62 9.05011 60.61 13.2701C62.27 11.0201 63.7 8.59011 65.55 6.48011C68.04 6.07011 70.58 6.26011 73.09 6.19011C70.7 9.18011 68.36 12.1901 65.98 15.1801C68.4 18.1001 70.77 21.0701 73.16 24.0101C70.6 24.0201 68.03 23.9701 65.47 23.9401C63.89 21.4601 62.26 19.0101 60.63 16.5701C60.62 19.0401 60.62 21.5201 60.62 24.0001C58.58 24.0001 56.54 24.0001 54.5 24.0001C54.5 16.2101 54.5 8.42011 54.5 0.630107Z" fill="#5C524B"/>
<path d="M0.5 1.75C6.5 1.75 12.5 1.75 18.49 1.75C18.5 3.37 18.5 4.99 18.51 6.62C16.55 6.61 14.59 6.63 12.63 6.63C12.62 12.42 12.62 18.21 12.63 24C10.54 24 8.46 24 6.37 24C6.38 18.21 6.38 12.42 6.37 6.63C4.41 6.63 2.46 6.61 0.5 6.62C0.5 4.99 0.5 3.37 0.5 1.75Z" fill="#5C524B"/>
<path d="M20.89 6.26018C22.95 6.25018 25 6.25018 27.06 6.25018C27.01 6.98018 26.91 8.45018 26.86 9.18018C28.58 7.70018 30.52 6.52018 32.63 5.68018C32.71 7.95018 32.76 10.2202 32.8 12.4802C31.07 12.8002 29.23 12.8302 27.66 13.6702C26.52 16.9802 27.12 20.5702 27 24.0002C24.96 24.0002 22.92 24.0002 20.88 24.0002C20.88 18.0802 20.86 12.1702 20.89 6.26018Z" fill="#5C524B"/>
<path d="M38.18 7.14017C42.14 5.08017 47.72 5.81017 50.46 9.54017C51.87 11.5002 51.8 14.0502 52.19 16.3302C47.96 16.4002 43.72 16.3002 39.49 16.5202C40.29 17.4302 41.04 18.3902 41.94 19.2102C45.16 18.1702 48.49 17.6102 51.88 17.8602C50.1 22.8302 44.3 25.7602 39.34 23.5602C32.63 21.1802 32.14 10.5602 38.18 7.14017ZM39.6 13.2302C41.83 13.3402 44.06 13.3402 46.3 13.2702C45.25 12.4902 44.53 10.8202 43.04 10.9702C41.47 10.7102 40.66 12.4202 39.6 13.2302Z" fill="#5C524B"/>
<path d="M75 1.75C77.49 1.75 79.97 1.75 82.46 1.75C84.34 6.57 86.18 11.4 88.05 16.22C89.89 11.4 91.65 6.55 93.53 1.75C96.02 1.75 98.51 1.75 101 1.75C101 9.17 101 16.58 101 24C98.92 24 96.83 24 94.75 24C94.75 19.99 94.78 15.99 94.73 11.99C93.25 15.94 91.91 19.95 90.61 23.97C88.88 23.99 87.16 24 85.43 24.01C84.01 19.87 82.55 15.75 81.16 11.6C81.11 15.73 81.12 19.87 81.12 24C79.08 24 77.04 24 75 24C75 16.58 75 9.17 75 1.75Z" fill="#F8C654"/>
<path d="M109.41 6.60007C114.03 4.88007 120.32 6.99007 121.67 12.0801C123.15 16.4301 121.13 21.9601 116.62 23.5301C112.3 25.2501 106.49 23.9101 104.44 19.4301C102.07 14.8001 104.1 8.05007 109.41 6.60007ZM110.42 11.8501C110 14.1201 109.02 18.0601 112.13 18.7801C115.66 19.5701 116.98 14.2101 114.73 12.1701C113.75 10.7401 111.8 11.9401 110.42 11.8501Z" fill="#F8C654"/>
<path d="M123.18 6.26999C125.36 6.25999 127.53 6.24999 129.71 6.23999C130.86 10.21 131.95 14.2 133.15 18.16C134.2 14.17 135.33 10.21 136.46 6.23999C138.65 6.24999 140.85 6.24999 143.04 6.24999C141.04 12.18 139 18.1 136.9 24C134.35 24 131.79 24 129.24 24C127.25 18.08 125.08 12.22 123.18 6.26999Z" fill="#F8C654"/>
<path d="M146.59 8.47991C150.4 4.94991 157.51 5.08991 160.53 9.57991C162.01 11.5199 162.03 14.0399 162.29 16.3499C158.09 16.4099 153.88 16.2499 149.69 16.5499C150.81 19.4399 153.57 19.8499 155.72 17.8999C157.8 17.8699 159.89 17.8899 161.98 17.9099C160.14 23.7899 152.44 26.1799 147.55 22.5299C143.18 19.3599 143.02 12.2999 146.59 8.47991ZM149.81 13.2699C151.98 13.3599 154.16 13.3699 156.33 13.2999C155.3 12.4699 154.61 10.5199 153 10.9999C151.49 10.8499 150.82 12.4699 149.81 13.2699Z" fill="#F8C654"/>
<path d="M164.64 6.25995C166.74 6.24995 168.84 6.24995 170.94 6.24995C170.89 7.11995 170.83 7.99995 170.78 8.86995C172.51 7.56995 174.41 6.51995 176.42 5.69995C176.48 7.97995 176.5 10.27 176.54 12.55C174.72 12.91 172.34 12.43 171.17 14.23C170.55 17.44 170.97 20.75 170.88 24C168.79 24 166.71 24 164.63 24C164.63 18.09 164.61 12.17 164.64 6.25995Z" fill="#F8C654"/>
<path d="M178.6 12.97C177.5 8.11998 182.95 5.25998 187.08 6.09998C190.64 6.03998 192.95 9.10998 193.99 12.17C192.22 12.22 190.45 12.24 188.68 12.23C187.33 10.55 185.37 10.33 183.4 10.88C185.4 13.39 188.83 13.18 191.47 14.6C194.17 16.1 194.5 20.3 192.21 22.31C187.55 26.08 179.02 24.33 177.57 18.05C179.48 18.02 181.4 18 183.31 18C184.2 18.76 185.13 19.46 186.11 20.11C186.99 19.59 187.83 18.99 188.63 18.33C185.34 16.58 180.02 17.13 178.6 12.97Z" fill="#F8C654"/>
</svg>
