<svg width="18" height="18" viewBox="0 0 18 18" fill="none" xmlns="http://www.w3.org/2000/svg">
<g clip-path="url(#clip0_1_24)">
<path d="M17.6505 14.3129L15.655 12.9824L13.8811 11.8C13.5387 11.5723 13.0786 11.6469 12.8259 11.9714L11.7282 13.3825C11.4924 13.6887 11.0683 13.7767 10.7301 13.5895C9.98533 13.1752 9.10457 12.7851 7.16122 10.8392C5.21788 8.8934 4.82529 8.01514 4.41098 7.27033C4.22378 6.9322 4.31177 6.50804 4.61798 6.27229L6.0291 5.17462C6.35348 4.92192 6.42819 4.46183 6.20041 4.11945L5.05433 2.40016L3.68758 0.350012C3.45495 0.0010554 2.98928 -0.103709 2.62964 0.111972L1.05339 1.05759C0.627405 1.30857 0.314272 1.71385 0.178852 2.1894C-0.252194 3.76097 -0.339099 7.22779 5.21693 12.7838C10.773 18.3398 14.2395 18.2526 15.811 17.8216C16.2866 17.6862 16.6919 17.373 16.9428 16.947L17.8885 15.3708C18.1042 15.0111 17.9994 14.5455 17.6505 14.3129Z" fill="#5C524B"/>
<path d="M10.2413 2.79304C13.1537 2.79627 15.5139 5.15643 15.5171 8.06885C15.5171 8.24024 15.656 8.37921 15.8274 8.37921C15.9988 8.37921 16.1378 8.24027 16.1378 8.06885C16.1342 4.8138 13.4964 2.17595 10.2413 2.17236C10.0699 2.17236 9.93097 2.3113 9.93097 2.48272C9.93093 2.65407 10.0699 2.79304 10.2413 2.79304Z" fill="#5C524B"/>
<path d="M10.2412 4.65514C12.1257 4.65735 13.6528 6.18445 13.655 8.06887C13.655 8.24026 13.7939 8.37923 13.9653 8.37923C14.1367 8.37923 14.2757 8.24029 14.2757 8.06887C14.2731 5.84179 12.4684 4.03699 10.2412 4.03442C10.0698 4.03442 9.93088 4.17336 9.93088 4.34478C9.93088 4.5162 10.0698 4.65514 10.2412 4.65514Z" fill="#5C524B"/>
<path d="M10.2413 6.51716C11.0979 6.51818 11.792 7.2123 11.793 8.06887C11.793 8.24026 11.9319 8.37923 12.1034 8.37923C12.2747 8.37923 12.4137 8.24029 12.4137 8.06887C12.4123 6.86967 11.4405 5.89786 10.2413 5.89648C10.0699 5.89648 9.93097 6.03542 9.93097 6.20684C9.93093 6.37822 10.0699 6.51716 10.2413 6.51716Z" fill="#5C524B"/>
</g>
<defs>
<clipPath id="clip0_1_24">
<rect width="18" height="18" fill="white"/>
</clipPath>
</defs>
</svg>
