<svg width="14" height="14" viewBox="0 0 14 14" fill="none" xmlns="http://www.w3.org/2000/svg">
<path d="M7.00002 0C4.20426 0 1.92975 2.27451 1.92975 5.07024C1.92975 8.53983 6.46714 13.6334 6.66033 13.8485C6.84178 14.0506 7.15858 14.0503 7.33971 13.8485C7.53289 13.6334 12.0703 8.53983 12.0703 5.07024C12.0702 2.27451 9.79575 0 7.00002 0ZM7.00002 7.62122C5.5934 7.62122 4.44906 6.47686 4.44906 5.07024C4.44906 3.66362 5.59343 2.51929 7.00002 2.51929C8.40661 2.51929 9.55094 3.66365 9.55094 5.07027C9.55094 6.47689 8.40661 7.62122 7.00002 7.62122Z" fill="#AB9478"/>
</svg>
