<svg width="84" height="12" viewBox="0 0 84 12" fill="none" xmlns="http://www.w3.org/2000/svg">
<g clip-path="url(#clip0_1_293)">
<path d="M11.9687 4.60323C11.8901 4.36024 11.6746 4.18766 11.4196 4.16468L7.95611 3.85019L6.58654 0.644572C6.48556 0.409641 6.25557 0.257568 6.00004 0.257568C5.74451 0.257568 5.51452 0.409641 5.41354 0.645121L4.04396 3.85019L0.579886 4.16468C0.325362 4.18821 0.110391 4.36024 0.031379 4.60323C-0.0476331 4.84622 0.0253364 5.11273 0.217877 5.28074L2.83589 7.57676L2.0639 10.9774C2.00741 11.2274 2.10446 11.4859 2.31192 11.6359C2.42344 11.7164 2.5539 11.7574 2.68547 11.7574C2.79891 11.7574 2.91143 11.7269 3.01241 11.6664L6.00004 9.88083L8.98657 11.6664C9.20511 11.7979 9.4806 11.7859 9.6876 11.6359C9.89516 11.4854 9.99212 11.2269 9.93563 10.9774L9.16363 7.57676L11.7817 5.2812C11.9742 5.11273 12.0477 4.84668 11.9687 4.60323Z" fill="#FFC107"/>
</g>
<g clip-path="url(#clip1_1_293)">
<path d="M29.9687 4.60323C29.8901 4.36024 29.6746 4.18766 29.4196 4.16468L25.9561 3.85019L24.5865 0.644572C24.4856 0.409641 24.2556 0.257568 24 0.257568C23.7445 0.257568 23.5145 0.409641 23.4135 0.645121L22.044 3.85019L18.5799 4.16468C18.3254 4.18821 18.1104 4.36024 18.0314 4.60323C17.9524 4.84622 18.0253 5.11273 18.2179 5.28074L20.8359 7.57676L20.0639 10.9774C20.0074 11.2274 20.1045 11.4859 20.3119 11.6359C20.4234 11.7164 20.5539 11.7574 20.6855 11.7574C20.7989 11.7574 20.9114 11.7269 21.0124 11.6664L24 9.88083L26.9866 11.6664C27.2051 11.7979 27.4806 11.7859 27.6876 11.6359C27.8952 11.4854 27.9921 11.2269 27.9356 10.9774L27.1636 7.57676L29.7817 5.2812C29.9742 5.11273 30.0477 4.84668 29.9687 4.60323Z" fill="#FFC107"/>
</g>
<g clip-path="url(#clip2_1_293)">
<path d="M47.9687 4.60323C47.8901 4.36024 47.6746 4.18766 47.4196 4.16468L43.9561 3.85019L42.5865 0.644572C42.4856 0.409641 42.2556 0.257568 42 0.257568C41.7445 0.257568 41.5145 0.409641 41.4135 0.645121L40.044 3.85019L36.5799 4.16468C36.3254 4.18821 36.1104 4.36024 36.0314 4.60323C35.9524 4.84622 36.0253 5.11273 36.2179 5.28074L38.8359 7.57676L38.0639 10.9774C38.0074 11.2274 38.1045 11.4859 38.3119 11.6359C38.4234 11.7164 38.5539 11.7574 38.6855 11.7574C38.7989 11.7574 38.9114 11.7269 39.0124 11.6664L42 9.88083L44.9866 11.6664C45.2051 11.7979 45.4806 11.7859 45.6876 11.6359C45.8952 11.4854 45.9921 11.2269 45.9356 10.9774L45.1636 7.57676L47.7817 5.2812C47.9742 5.11273 48.0477 4.84668 47.9687 4.60323Z" fill="#FFC107"/>
</g>
<g clip-path="url(#clip3_1_293)">
<path d="M65.9687 4.60323C65.8901 4.36024 65.6746 4.18766 65.4196 4.16468L61.9561 3.85019L60.5865 0.644572C60.4855 0.409641 60.2556 0.257568 60 0.257568C59.7445 0.257568 59.5145 0.409641 59.4135 0.645121L58.044 3.85019L54.5799 4.16468C54.3254 4.18821 54.1104 4.36024 54.0314 4.60323C53.9524 4.84622 54.0253 5.11273 54.2179 5.28074L56.8359 7.57676L56.0639 10.9774C56.0074 11.2274 56.1045 11.4859 56.3119 11.6359C56.4234 11.7164 56.5539 11.7574 56.6855 11.7574C56.7989 11.7574 56.9114 11.7269 57.0124 11.6664L60 9.88083L62.9866 11.6664C63.2051 11.7979 63.4806 11.7859 63.6876 11.6359C63.8952 11.4854 63.9921 11.2269 63.9356 10.9774L63.1636 7.57676L65.7816 5.2812C65.9742 5.11273 66.0477 4.84668 65.9687 4.60323Z" fill="#FFC107"/>
</g>
<g clip-path="url(#clip4_1_293)">
<path d="M83.9687 4.60323C83.8901 4.36024 83.6746 4.18766 83.4196 4.16468L79.9561 3.85019L78.5865 0.644572C78.4855 0.409641 78.2556 0.257568 78 0.257568C77.7445 0.257568 77.5145 0.409641 77.4135 0.645121L76.044 3.85019L72.5799 4.16468C72.3254 4.18821 72.1104 4.36024 72.0314 4.60323C71.9524 4.84622 72.0253 5.11273 72.2179 5.28074L74.8359 7.57676L74.0639 10.9774C74.0074 11.2274 74.1045 11.4859 74.3119 11.6359C74.4234 11.7164 74.5539 11.7574 74.6855 11.7574C74.7989 11.7574 74.9114 11.7269 75.0124 11.6664L78 9.88083L80.9866 11.6664C81.2051 11.7979 81.4806 11.7859 81.6876 11.6359C81.8952 11.4854 81.9921 11.2269 81.9356 10.9774L81.1636 7.57676L83.7816 5.2812C83.9742 5.11273 84.0477 4.84668 83.9687 4.60323Z" fill="#FFC107"/>
</g>
<defs>
<clipPath id="clip0_1_293">
<rect width="12" height="12" fill="white"/>
</clipPath>
<clipPath id="clip1_1_293">
<rect width="12" height="12" fill="white" transform="translate(18)"/>
</clipPath>
<clipPath id="clip2_1_293">
<rect width="12" height="12" fill="white" transform="translate(36)"/>
</clipPath>
<clipPath id="clip3_1_293">
<rect width="12" height="12" fill="white" transform="translate(54)"/>
</clipPath>
<clipPath id="clip4_1_293">
<rect width="12" height="12" fill="white" transform="translate(72)"/>
</clipPath>
</defs>
</svg>
